<svg width="36" height="36" viewBox="0 0 36 36" xmlns="http://www.w3.org/2000/svg">
    <g fill="none" fill-rule="evenodd">
        <circle fill="#FEFC53" cx="18" cy="18" r="18"/>
        <g fill-rule="nonzero">
            <path d="M28.35 23.407c-3.6-1.712-4.174-4.356-4.2-4.552-.03-.238-.065-.425.201-.666.258-.234 1.399-.928 1.715-1.145.524-.36.754-.718.584-1.16-.118-.305-.408-.42-.713-.42-.096 0-.191.011-.285.032-.575.122-1.134.405-1.457.482a.517.517 0 0 1-.119.016c-.172 0-.237-.076-.22-.28.04-.617.125-1.822.026-2.948-.136-1.55-.644-2.317-1.247-2.995-.292-.33-1.646-1.744-4.26-1.744s-3.966 1.414-4.256 1.74c-.605.678-1.113 1.446-1.248 2.995-.099 1.126-.01 2.33.027 2.949.012.193-.049.279-.221.279a.522.522 0 0 1-.119-.016c-.322-.077-.88-.36-1.456-.482a1.347 1.347 0 0 0-.286-.032c-.305 0-.594.117-.712.42-.17.442.059.8.584 1.16.317.217 1.458.91 1.715 1.145.266.241.232.428.2.666-.025.199-.6 2.843-4.199 4.552-.21.1-.57.313.063.656.993.54 1.654.482 2.168.807.436.276.178.871.496 1.086.39.265 1.541-.018 3.03.464 1.247.404 2.005 1.545 4.217 1.545 2.212 0 2.992-1.146 4.217-1.545 1.486-.482 2.64-.2 3.03-.464.317-.215.06-.81.495-1.086.514-.325 1.175-.267 2.169-.807.631-.339.272-.551.061-.652z" fill="#FFF"/>
            <path d="M29.917 23.206c-.162-.432-.47-.663-.82-.854a2.063 2.063 0 0 0-.178-.092L28.6 22.1c-1.092-.569-1.945-1.287-2.537-2.138a4.825 4.825 0 0 1-.435-.759c-.05-.141-.049-.222-.012-.296a.485.485 0 0 1 .14-.143c.187-.122.38-.245.512-.329.234-.149.42-.266.539-.35.448-.308.762-.636.958-1.001a1.963 1.963 0 0 0 .1-1.657c-.297-.768-1.035-1.245-1.93-1.245a2.704 2.704 0 0 0-.708.092 15.99 15.99 0 0 0-.05-1.625c-.17-1.919-.853-2.924-1.566-3.726a6.219 6.219 0 0 0-1.592-1.259c-1.081-.607-2.308-.915-3.645-.915-1.337 0-2.558.308-3.64.915a6.196 6.196 0 0 0-1.595 1.26c-.713.803-1.397 1.81-1.566 3.727-.047.546-.059 1.103-.051 1.626a2.704 2.704 0 0 0-.707-.092c-.896 0-1.636.476-1.931 1.244a1.965 1.965 0 0 0 .098 1.659c.196.366.51.693.958 1.001.12.082.305.2.54.35l.492.317c.063.04.117.093.158.156.038.076.039.158-.018.31-.12.26-.263.508-.428.743-.578.832-1.406 1.537-2.464 2.101-.56.292-1.142.487-1.388 1.144-.185.495-.064 1.06.407 1.534.173.178.373.327.594.442.459.248.947.44 1.453.571.105.027.204.07.294.13.172.147.147.37.376.695.115.169.26.314.43.43.48.325 1.02.346 1.59.367.517.02 1.102.042 1.77.258.277.09.565.264.898.467.8.484 1.896 1.145 3.729 1.145 1.833 0 2.936-.665 3.742-1.15.331-.2.617-.372.886-.46.668-.216 1.253-.238 1.77-.257.57-.022 1.11-.042 1.59-.368.2-.137.368-.317.49-.525.164-.275.16-.467.315-.601a.918.918 0 0 1 .275-.124 6.528 6.528 0 0 0 1.473-.577c.235-.123.446-.286.624-.48l.006-.007c.442-.464.553-1.012.372-1.495zm-1.63.86c-.993.54-1.654.482-2.168.807-.436.276-.178.871-.495 1.086-.39.265-1.542-.018-3.03.464-1.227.399-2.01 1.545-4.217 1.545-2.208 0-2.972-1.144-4.22-1.548-1.485-.482-2.639-.2-3.03-.464-.316-.214-.059-.81-.495-1.086-.514-.325-1.175-.267-2.168-.804-.633-.343-.274-.555-.063-.656 3.6-1.712 4.174-4.356 4.2-4.552.03-.238.065-.425-.2-.666-.258-.234-1.4-.928-1.716-1.145-.524-.36-.754-.718-.584-1.16.118-.305.408-.42.712-.42.097 0 .192.011.286.032.575.122 1.134.405 1.456.482.039.01.079.015.119.016.172 0 .233-.086.221-.28-.037-.618-.126-1.822-.027-2.948.136-1.55.644-2.317 1.248-2.996.29-.326 1.652-1.74 4.257-1.74 2.604 0 3.97 1.408 4.26 1.733.604.68 1.113 1.447 1.247 2.996.1 1.126.014 2.331-.026 2.949-.014.203.048.279.22.279.04-.001.08-.006.12-.016.323-.077.88-.36 1.456-.482.094-.021.19-.032.286-.032.306 0 .594.117.713.42.17.442-.06.8-.584 1.16-.317.217-1.458.91-1.715 1.145-.267.241-.232.428-.201.666.025.199.6 2.843 4.2 4.552.212.105.571.317-.062.663z" fill="#000"/>
        </g>
    </g>
</svg>
