<svg width="36" height="36" viewBox="0 0 36 36" xmlns="http://www.w3.org/2000/svg">
    <g fill-rule="nonzero" fill="none">
        <circle fill="#2DAAE1" cx="18" cy="18" r="18"/>
        <path d="M29.541 10.84a9.454 9.454 0 0 1-2.72.746 4.749 4.749 0 0 0 2.083-2.62 9.46 9.46 0 0 1-3.008 1.15A4.728 4.728 0 0 0 22.44 8.62a4.735 4.735 0 0 0-4.735 4.735c0 .37.042.732.122 1.08a13.445 13.445 0 0 1-9.76-4.948 4.712 4.712 0 0 0-.641 2.38c0 1.643.836 3.092 2.106 3.941a4.714 4.714 0 0 1-2.145-.592v.06a4.737 4.737 0 0 0 3.799 4.643 4.806 4.806 0 0 1-2.139.083 4.741 4.741 0 0 0 4.422 3.288 9.5 9.5 0 0 1-7.01 1.96 13.4 13.4 0 0 0 7.258 2.129c8.71 0 13.473-7.216 13.473-13.473 0-.206-.005-.41-.014-.613a9.648 9.648 0 0 0 2.365-2.454z" fill="#FFF"/>
    </g>
</svg>
