<svg width="36" height="36" viewBox="0 0 36 36" xmlns="http://www.w3.org/2000/svg">
    <g fill="none" fill-rule="evenodd">
        <circle fill="#BD081C" cx="18" cy="18" r="18"/>
        <path d="m11.727 28.455 1.779-7.451s.18-.9-.28-1.704c0 0-1.024-2.56 1-4.729 0 0 1.657-1.877 3.777-.463 0 0 1.21.952.723 2.756l-1.44 4.5s-.88 3.42 2.375 3.713c0 0 3.437.463 5.095-4.192 1.657-4.656-.27-7.621-.27-7.621s-2.48-4.353-8.08-3.437c-5.6.917-6.309 6.26-6.309 6.26s-.42 3.29 1.336 5.69l-.84 2.87s-4.287-2.743-4.107-7.67c0 0 .18-8.213 8.58-10.193 0 0 7.61-1.917 12.114 4.196 2.52 3.42 2.34 7.144 1.8 9.905-.54 2.76-2.58 4.528-2.58 4.528s-5.514 5.85-10.312.687l-1.022 3.936s-1.198 4.265-2.82 5.368l-.746-.191s-.372-4.75.227-6.758z" fill="#FFF"/>
    </g>
</svg>
