<svg width="36" height="36" viewBox="0 0 36 36" xmlns="http://www.w3.org/2000/svg">
    <defs>
        <linearGradient x1="50%" y1="0%" x2="50%" y2="100%" id="a">
            <stop stop-color="#E72B22" offset="0%"/>
            <stop stop-color="#DD2A22" offset="100%"/>
        </linearGradient>
    </defs>
    <g fill="none" fill-rule="evenodd">
        <circle fill="#F2F3F3" cx="18" cy="18" r="18"/>
        <path fill="#FFF" d="M13.5 14.25h9.75v8.25H13.5z"/>
        <path fill="#E9E9E9" d="m15.65 15.176 6.172 4.194.67-2.127z"/>
        <path d="M19.054.253c.004 0 1.935.067 2.69 1.503 0 0 .754 1.041.754 6.12v.04l.001.049v.15c.003.767-.015 3.182-.313 4.575-.357 1.671-1.147 2.16-1.147 2.16s-.507.488-1.624.62c-1.117.134-4.74.28-8.183.28h-.148c-.53-.002-2.397-.012-4.291-.074l-.516-.018c-1.374-.052-2.698-.133-3.47-.26C.684 15.05.385 13.082.385 13.082s-.048-.276-.11-.769l-.032-.264A37.13 37.13 0 0 1 0 8.053V7.51a32.29 32.29 0 0 1 .385-4.835l.009-.054.018-.09C.52 2.045 1.033.468 3.174.254c0 0 2.624-.241 7.692-.253h.366c5.184 0 7.708.242 7.822.253zM8.901 4.676v6.152l6.181-3.076-6.181-3.076z" fill="url(#a)" transform="translate(6.75 10.5)"/>
    </g>
</svg>
