<svg width="36" height="36" viewBox="0 0 36 36" xmlns="http://www.w3.org/2000/svg" xmlns:xlink="http://www.w3.org/1999/xlink">
    <defs>
        <path id="a" d="M0 0h36v35.781H0z"/>
    </defs>
    <g fill="none" fill-rule="evenodd">
        <g>
            <mask id="b" fill="#fff">
                <use xlink:href="#a"/>
            </mask>
            <path d="M36 18C36 8.057 27.94-.002 17.999-.002c-9.942 0-18.001 8.059-18.001 18 0 8.985 6.583 16.432 15.188 17.782V23.203h-4.57v-5.204h4.57v-3.965c0-4.512 2.688-7.004 6.8-7.004 1.969 0 4.029.352 4.029.352v4.43h-2.27c-2.236 0-2.933 1.387-2.933 2.81V18h4.992l-.798 5.204h-4.194V35.78C29.417 34.431 36 26.984 36 18" fill="#3975EA" mask="url(#b)"/>
        </g>
        <path d="m25.006 23.203.798-5.204h-4.992v-3.376c0-1.424.697-2.811 2.933-2.811h2.27v-4.43s-2.06-.352-4.03-.352c-4.111 0-6.799 2.492-6.799 7.004v3.965h-4.57v5.204h4.57V35.78a18.136 18.136 0 0 0 5.626 0V23.203h4.194" fill="#FFF"/>
    </g>
</svg>
